<svg id="Calque_1" data-name="Calque 1" xmlns="http://www.w3.org/2000/svg" viewBox="0 0 200.08 200.08"><defs><style>.cls-1{fill:#fff;}</style></defs><title>logo-facebook</title><path class="cls-1" d="M99.85,18.8a81,81,0,1,1-81,81,81.11,81.11,0,0,1,81-81M99.85,5a94.86,94.86,0,1,0,94.86,94.86A94.86,94.86,0,0,0,99.85,5Z"/><path class="cls-1" d="M123.89,99.4H108.17v56.07H84.86V99.4H73.78V79.6H84.86V66.78c0-9.17,4.35-23.52,23.51-23.52l17.27.08V62.56H113.11c-2,0-4.94,1-4.94,5.4V79.61h17.75Zm0,0"/></svg>