<svg id="Calque_1" data-name="Calque 1" xmlns="http://www.w3.org/2000/svg" viewBox="0 0 200.08 200.08"><defs><style>.cls-1,.cls-2{fill:#fff;}.cls-2{fill-rule:evenodd;}</style></defs><title>logo-youtube</title><path class="cls-1" d="M99.84,17.32A81.14,81.14,0,1,1,18.7,98.46,81.23,81.23,0,0,1,99.84,17.32m0-13.86a95,95,0,1,0,95,95,95,95,0,0,0-95-95Z"/><path class="cls-2" d="M157.55,75.55A17.25,17.25,0,0,0,140.3,58.3H59.39A17.25,17.25,0,0,0,42.14,75.55v46.27a17.25,17.25,0,0,0,17.25,17.26H140.3a17.25,17.25,0,0,0,17.25-17.26ZM88.3,118.21V74.75l33,21.73Zm0,0"/></svg>