<svg id="Calque_1" data-name="Calque 1" xmlns="http://www.w3.org/2000/svg" viewBox="0 0 200.08 200.08"><defs><style>.cls-1{fill:#fff;}</style></defs><title>logo-twitter</title><path class="cls-1" d="M100.07,18.94A81.11,81.11,0,1,1,19,100a81.19,81.19,0,0,1,81.1-81.1m0-13.85a95,95,0,1,0,95,95,94.95,94.95,0,0,0-95-94.95Z"/><path class="cls-1" d="M158.68,62.79a48.12,48.12,0,0,1-13.81,3.78,24.14,24.14,0,0,0,10.57-13.3,48,48,0,0,1-15.27,5.83A24.08,24.08,0,0,0,99.19,81,68.3,68.3,0,0,1,49.62,55.91,24.09,24.09,0,0,0,57.07,88a24,24,0,0,1-10.9-3v.3a24.06,24.06,0,0,0,19.29,23.58,24,24,0,0,1-10.86.42A24.06,24.06,0,0,0,77.07,126,48.2,48.2,0,0,1,47.2,136.3a47,47,0,0,1-5.73-.34,68,68,0,0,0,36.86,10.81c44.23,0,68.42-36.64,68.42-68.43,0-1,0-2.08-.07-3.11a48.78,48.78,0,0,0,12-12.44Zm0,0"/></svg>