<svg id="Calque_1" data-name="Calque 1" xmlns="http://www.w3.org/2000/svg" viewBox="0 0 200.08 200.08"><defs><style>.cls-1{fill:#fff;}</style></defs><title>logo-instagram</title><path class="cls-1" d="M99.69,20.84A78.75,78.75,0,1,1,20.94,99.59,78.84,78.84,0,0,1,99.69,20.84m0-15.46A94.22,94.22,0,1,0,193.9,99.59,94.22,94.22,0,0,0,99.69,5.38Z"/><path class="cls-1" d="M137.88,51.16H61.5a9.57,9.57,0,0,0-9.56,9.56V137.1a9.57,9.57,0,0,0,9.56,9.56h76.38a9.57,9.57,0,0,0,9.56-9.56V60.72a9.57,9.57,0,0,0-9.56-9.56ZM99.69,79.82a19.1,19.1,0,1,1-19.1,19.09,19.13,19.13,0,0,1,19.1-19.09ZM63.88,137.1a2.24,2.24,0,0,1-2.38-2.37V94.13h10a15.67,15.67,0,0,0-.5,4.78,28.66,28.66,0,1,0,57.31,0,16.3,16.3,0,0,0-.48-4.78h10v40.6a2.24,2.24,0,0,1-2.38,2.37Zm74-64.44A2.25,2.25,0,0,1,135.5,75h-9.56a2.26,2.26,0,0,1-2.38-2.38V63.1a2.26,2.26,0,0,1,2.38-2.38h9.56a2.25,2.25,0,0,1,2.38,2.38Zm0,0"/></svg>